<?xml version="1.0" standalone="no"?><svg xmlns="http://www.w3.org/2000/svg" viewBox="0 0 1440 320"><path fill="#faeee7" fill-opacity="1" d="M0,128L16,144C32,160,64,192,96,181.3C128,171,160,117,192,128C224,139,256,213,288,245.3C320,277,352,267,384,234.7C416,203,448,149,480,149.3C512,149,544,203,576,192C608,181,640,107,672,64C704,21,736,11,768,10.7C800,11,832,21,864,48C896,75,928,117,960,165.3C992,213,1024,267,1056,261.3C1088,256,1120,192,1152,149.3C1184,107,1216,85,1248,112C1280,139,1312,213,1344,234.7C1376,256,1408,224,1424,208L1440,192L1440,0L1424,0C1408,0,1376,0,1344,0C1312,0,1280,0,1248,0C1216,0,1184,0,1152,0C1120,0,1088,0,1056,0C1024,0,992,0,960,0C928,0,896,0,864,0C832,0,800,0,768,0C736,0,704,0,672,0C640,0,608,0,576,0C544,0,512,0,480,0C448,0,416,0,384,0C352,0,320,0,288,0C256,0,224,0,192,0C160,0,128,0,96,0C64,0,32,0,16,0L0,0Z"></path></svg>