<svg id="visual" viewBox="0 0 900 600" width="900" height="600" xmlns="http://www.w3.org/2000/svg" xmlns:xlink="http://www.w3.org/1999/xlink" version="1.1"><rect x="0" y="0" width="900" height="600" fill="#faeee7"></rect><path d="M0 448L21.5 442.8C43 437.7 86 427.3 128.8 438.2C171.7 449 214.3 481 257.2 476C300 471 343 429 385.8 425.8C428.7 422.7 471.3 458.3 514.2 466.5C557 474.7 600 455.3 642.8 456.3C685.7 457.3 728.3 478.7 771.2 485.2C814 491.7 857 483.3 878.5 479.2L900 475L900 601L878.5 601C857 601 814 601 771.2 601C728.3 601 685.7 601 642.8 601C600 601 557 601 514.2 601C471.3 601 428.7 601 385.8 601C343 601 300 601 257.2 601C214.3 601 171.7 601 128.8 601C86 601 43 601 21.5 601L0 601Z" fill="#fff" stroke-linecap="round" stroke-linejoin="miter"></path></svg>